<svg width="32" height="32" viewBox="0 0 32 32" fill="none" xmlns="http://www.w3.org/2000/svg">
<path d="M24.5456 22.5H7.04699C6.5565 22.5 6.13841 22.1443 6.05989 21.6601L5.25798 16.7158C6.8685 17.7426 8.43213 18.0979 10.0784 17.5859C11.1835 17.2423 12.2197 16.5339 13.2483 15.5844C14.0122 14.8792 14.8015 14.0131 15.6386 13.0066C17.2669 15.5253 18.9093 17.1085 20.9462 17.5542C22.7296 17.9445 24.5995 17.4111 26.6879 16.3245L25.5231 21.7114C25.4235 22.1716 25.0165 22.5 24.5456 22.5ZM3.8585 13.3333C3.56333 13.3333 3.38553 13.2213 3.25607 13.0537C3.10559 12.8588 3.00001 12.5508 3 12.1944C2.99999 11.838 3.10557 11.53 3.25603 11.3352C3.38547 11.1676 3.56325 11.0556 3.85843 11.0556C4.15356 11.0556 4.33134 11.1676 4.46078 11.3352C4.61125 11.53 4.71683 11.8381 4.71684 12.1945C4.71684 12.5508 4.61127 12.8589 4.46081 13.0537C4.33137 13.2213 4.15361 13.3333 3.8585 13.3333ZM28.1416 11.0556C28.4367 11.0556 28.6145 11.1676 28.744 11.3352C28.8944 11.53 29 11.8381 29 12.1944C29 12.5508 28.8944 12.8589 28.744 13.0537C28.6145 13.2213 28.4367 13.3333 28.1416 13.3333C27.8465 13.3333 27.6687 13.2213 27.5392 13.0537C27.3888 12.8589 27.2832 12.5508 27.2832 12.1944C27.2832 11.8381 27.3888 11.53 27.5392 11.3352C27.6687 11.1676 27.8465 11.0556 28.1416 11.0556ZM15.7523 8C16.0475 8 16.2253 8.11206 16.3547 8.27967C16.5052 8.47448 16.6108 8.78251 16.6108 9.13889C16.6108 9.49527 16.5052 9.80329 16.3547 9.99811C16.2253 10.1657 16.0475 10.2778 15.7523 10.2778C15.4571 10.2778 15.2793 10.1657 15.1499 9.99811C14.9994 9.80329 14.8938 9.49527 14.8938 9.13889C14.8938 8.78251 14.9994 8.47448 15.1499 8.27967C15.2793 8.11206 15.4571 8 15.7523 8ZM24.9372 27.5556C25.0599 27.5556 25.1594 27.655 25.1594 27.7778C25.1594 27.9005 25.0599 28 24.9372 28H6.56745C6.44472 28 6.34523 27.9005 6.34523 27.7778C6.34523 27.655 6.44472 27.5556 6.56745 27.5556H24.9372Z" fill="#DF973A" stroke="#DF973A" stroke-width="2" stroke-linecap="round"/>
</svg>
