<svg width="32" height="32" viewBox="0 0 32 32" fill="none" xmlns="http://www.w3.org/2000/svg">
<path d="M15.5294 30L16.8779 25.9546C17.0742 25.3655 17.4051 24.8302 17.8442 24.3911L22.5294 19.7059M15.5294 30L19.911 29.3741C20.8066 29.2461 21.6323 28.8184 22.2534 28.1607L26.4649 23.7015M15.5294 30H8C5.79086 30 4 28.2091 4 26V6C4 3.79086 5.79086 2 8 2H22.2353C24.4444 2 26.2353 3.79086 26.2353 6V19.5187M26.4649 23.7015V23.7015C27.4958 22.61 27.5084 20.9076 26.494 19.8009L26.2353 19.5187M26.4649 23.7015L22.5294 19.7059M22.5294 19.7059L22.8253 19.41C23.7802 18.4551 25.3431 18.5049 26.2353 19.5187V19.5187M8.29412 17H16.5294M8.29412 12.0588H21.4706M21.4706 7.11765H8.29412" stroke="#F6F5EF" stroke-width="2" stroke-linecap="round" stroke-linejoin="round"/>
</svg>
