<svg width="32" height="32" viewBox="0 0 32 32" fill="none" xmlns="http://www.w3.org/2000/svg">
<path d="M18 14V13.9492V8.4746L22 7L18.4042 5.86491C18.1636 5.78895 18 5.56573 18 5.31339C18 4.03574 16.9643 3 15.6866 3H7C4.79086 3 3 4.79086 3 7V14C3 16.2091 4.79086 18 7 18H14C16.2091 18 18 16.2091 18 14Z" stroke="#F6F5EF" stroke-width="2" stroke-linecap="round" stroke-linejoin="round"/>
<path d="M29 25V24.9492V18C29 15.7909 27.2091 14 25 14H18C15.7909 14 14 15.7909 14 18V22.3406C14 22.7406 13.7616 23.1022 13.3939 23.2597L10.5 24.5L13.6098 25.8328C13.8465 25.9342 14 26.167 14 26.4246C14 27.8469 15.1531 29 16.5754 29H25C27.2091 29 29 27.2091 29 25Z" stroke="#F6F5EF" stroke-width="2" stroke-linecap="round" stroke-linejoin="round"/>
<path d="M17.5 26L19.25 22.5M25.5 26L23.75 22.5M23.75 22.5L21.5 18L19.25 22.5M23.75 22.5H19.25" stroke="#F6F5EF" stroke-linecap="round"/>
<path d="M10.34 6L10.3409 8.66667M10.3409 8.66667H12.0909M10.3409 8.66667H8.59091M7 8.66667H8.59091M14 8.66667H12.0909M12.0909 8.66667C12.0909 11.3333 10.8182 12.6667 7.63636 14M8.59091 8.66667C8.59091 11.3333 9.54545 12.6667 13.3636 14" stroke="#F6F5EF" stroke-linecap="round"/>
</svg>
