<svg width="32" height="32" viewBox="0 0 32 32" fill="none" xmlns="http://www.w3.org/2000/svg">
<g clip-path="url(#clip0_1014_25839)">
<path d="M7.55469 7.14844H10.9238V18.4688C10.9238 19.5094 10.6917 20.4303 10.2275 21.2314C9.77083 22.0251 9.12321 22.639 8.28467 23.0732C7.44613 23.5075 6.49902 23.7246 5.44336 23.7246C3.71387 23.7246 2.36621 23.2866 1.40039 22.4106C0.43457 21.5272 -0.0483398 20.2806 -0.0483398 18.6709H3.34326C3.34326 19.472 3.51172 20.0635 3.84863 20.4453C4.18555 20.8271 4.71712 21.0181 5.44336 21.0181C6.08724 21.0181 6.6001 20.7972 6.98193 20.3555C7.36377 19.9137 7.55469 19.2848 7.55469 18.4688V7.14844ZM18.2124 7.14844L22.4126 19.0078L26.5903 7.14844H31.0151V23.5H27.6348V19.0303L27.9717 11.3149L23.5581 23.5H21.2446L16.8423 11.3262L17.1792 19.0303V23.5H13.8101V7.14844H18.2124Z" fill="#F6F5EF"/>
</g>
<defs>
<clipPath id="clip0_1014_25839">
<rect width="32" height="32" fill="white"/>
</clipPath>
</defs>
</svg>
