<svg width="32" height="32" viewBox="0 0 32 32" fill="none" xmlns="http://www.w3.org/2000/svg">
<path d="M15.4998 19L8.49982 26C8.22368 26.2761 7.77596 26.2761 7.49982 26C7.22368 25.7239 7.22368 25.2761 7.49982 25L14.4998 18L15.4998 17L17.4998 15C14.4998 11.5 21.4997 4.99999 24.9998 7.99999C28.4999 11 21.9998 19 18.4998 16L16.4998 18L15.4998 19Z" fill="#F6F5EF"/>
<path d="M18.4998 16L16.4998 18L15.4998 19L8.49982 26C8.22368 26.2761 7.77596 26.2761 7.49982 26V26C7.22368 25.7238 7.22368 25.2761 7.49982 25L14.4998 18L15.4998 17L17.4998 15M18.4998 16C21.9998 19 28.4999 11 24.9998 7.99999C21.4997 4.99999 14.4998 11.5 17.4998 15M18.4998 16L17.4998 15" stroke="#F6F5EF" stroke-linecap="round" stroke-linejoin="round"/>
</svg>
