<svg width="32" height="32" viewBox="0 0 32 32" fill="none" xmlns="http://www.w3.org/2000/svg">
<g clip-path="url(#clip0_1014_25848)">
<path d="M12.2295 21.5449H5.29492L3.97656 25.5H-0.229004L6.9165 6.30469H10.5815L17.7666 25.5H13.561L12.2295 21.5449ZM6.36279 18.3413H11.1616L8.74902 11.1562L6.36279 18.3413ZM27.5752 25.5C27.3994 25.1572 27.272 24.731 27.1929 24.2212C26.27 25.2495 25.0703 25.7637 23.5938 25.7637C22.1963 25.7637 21.0361 25.3594 20.1133 24.5508C19.1992 23.7422 18.7422 22.7227 18.7422 21.4922C18.7422 19.9805 19.3003 18.8203 20.4165 18.0117C21.5415 17.2031 23.1631 16.7944 25.2812 16.7856H27.0347V15.9683C27.0347 15.3091 26.8633 14.7817 26.5205 14.3862C26.1865 13.9907 25.6548 13.793 24.9253 13.793C24.2837 13.793 23.7783 13.9468 23.4092 14.2544C23.0488 14.562 22.8687 14.9839 22.8687 15.52H19.0586C19.0586 14.6938 19.3135 13.9292 19.8232 13.2261C20.333 12.5229 21.0537 11.9736 21.9854 11.5781C22.917 11.1738 23.9629 10.9717 25.123 10.9717C26.8809 10.9717 28.2739 11.4155 29.3022 12.3032C30.3394 13.1821 30.8579 14.4214 30.8579 16.021V22.2041C30.8667 23.5576 31.0557 24.5815 31.4248 25.2759V25.5H27.5752ZM24.4243 22.8501C24.9868 22.8501 25.5054 22.7271 25.98 22.481C26.4546 22.2261 26.8062 21.8877 27.0347 21.4658V19.0137H25.6108C23.7036 19.0137 22.6885 19.6729 22.5654 20.9912L22.5522 21.2153C22.5522 21.6899 22.7192 22.0811 23.0532 22.3887C23.3872 22.6963 23.8442 22.8501 24.4243 22.8501Z" fill="#F6F5EF"/>
</g>
<defs>
<clipPath id="clip0_1014_25848">
<rect width="32" height="32" fill="white"/>
</clipPath>
</defs>
</svg>
