<svg width="32" height="32" viewBox="0 0 32 32" fill="none" xmlns="http://www.w3.org/2000/svg">
<path d="M13.5 30H7.5C6.39543 30 5.5 29.1046 5.5 28V21.5C5.5 20.3954 4.60457 19.5 3.5 19.5H2.875V19.5C2.39175 19.5 2 19.1082 2 18.625V18.625V16.8284C2 16.298 2.21071 15.7893 2.58579 15.4142L14.5858 3.41421C15.3668 2.63316 16.6332 2.63317 17.4142 3.41421L23 9M13.5 30H18.5M13.5 30V23.875V23.875C13.5 23.3918 13.8918 23 14.375 23V23H17.625V23C18.1082 23 18.5 23.3918 18.5 23.875V23.875V30M18.5 30H24.5C25.6046 30 26.5 29.1046 26.5 28V21.5C26.5 20.3954 27.3954 19.5 28.5 19.5H29.125V19.5C29.6082 19.5 30 19.1082 30 18.625V18.625V16.8284C30 16.298 29.7893 15.7893 29.4142 15.4142L26.5 12.5M23 9V7.25C23 6.76675 23.3918 6.375 23.875 6.375V6.375H25.625V6.375C26.1082 6.375 26.5 6.76675 26.5 7.25V12.5M23 9L26.5 12.5M19.625 19.375V19.375C19.1418 19.375 18.75 18.9832 18.75 18.5V18.5V16.75V16.75C18.75 16.2668 19.1418 15.875 19.625 15.875V15.875H22.125V15.875C22.6082 15.875 23 16.2668 23 16.75V16.75V18.5V18.5C23 18.9832 22.6082 19.375 22.125 19.375V19.375H19.625ZM12.375 19.375V19.375C12.8582 19.375 13.25 18.9832 13.25 18.5V18.5V16.75V16.75C13.25 16.2668 12.8582 15.875 12.375 15.875V15.875H9.875V15.875C9.39175 15.875 9 16.2668 9 16.75V16.75V18.5V18.5C9 18.9832 9.39175 19.375 9.875 19.375V19.375H12.375Z" stroke="#F6F5EF" stroke-width="2" stroke-linecap="round" stroke-linejoin="round"/>
</svg>
