<svg width="32" height="32" viewBox="0 0 32 32" fill="none" xmlns="http://www.w3.org/2000/svg">
<path d="M24.5456 20.5H7.04699C6.5565 20.5 6.13841 20.1443 6.05989 19.6601L5.25798 14.7158C6.8685 15.7426 8.43213 16.0979 10.0784 15.5859C11.1835 15.2423 12.2197 14.5339 13.2483 13.5844C14.0122 12.8792 14.8015 12.0131 15.6386 11.0066C17.2669 13.5253 18.9093 15.1085 20.9462 15.5542C22.7296 15.9445 24.5995 15.4111 26.6879 14.3245L25.5231 19.7114C25.4235 20.1716 25.0165 20.5 24.5456 20.5ZM3.8585 11.3333C3.56333 11.3333 3.38553 11.2213 3.25607 11.0537C3.10559 10.8588 3.00001 10.5508 3 10.1944C2.99999 9.83804 3.10557 9.53002 3.25603 9.33521C3.38547 9.16761 3.56325 9.05556 3.85843 9.05556C4.15356 9.05556 4.33134 9.1676 4.46078 9.33521C4.61125 9.53003 4.71683 9.83806 4.71684 10.1945C4.71684 10.5508 4.61127 10.8589 4.46081 11.0537C4.33137 11.2213 4.15361 11.3333 3.8585 11.3333ZM28.1416 9.05556C28.4367 9.05556 28.6145 9.1676 28.744 9.33521C28.8944 9.53003 29 9.83806 29 10.1944C29 10.5508 28.8944 10.8589 28.744 11.0537C28.6145 11.2213 28.4367 11.3333 28.1416 11.3333C27.8465 11.3333 27.6687 11.2213 27.5392 11.0537C27.3888 10.8589 27.2832 10.5508 27.2832 10.1944C27.2832 9.83806 27.3888 9.53003 27.5392 9.33521C27.6687 9.1676 27.8465 9.05556 28.1416 9.05556ZM15.7523 6C16.0475 6 16.2253 6.11206 16.3547 6.27967C16.5052 6.47448 16.6108 6.78251 16.6108 7.13889C16.6108 7.49527 16.5052 7.80329 16.3547 7.99811C16.2253 8.16572 16.0475 8.27778 15.7523 8.27778C15.4571 8.27778 15.2793 8.16572 15.1499 7.99811C14.9994 7.80329 14.8938 7.49527 14.8938 7.13889C14.8938 6.78251 14.9994 6.47448 15.1499 6.27967C15.2793 6.11206 15.4571 6 15.7523 6ZM24.9372 25.5556C25.0599 25.5556 25.1594 25.655 25.1594 25.7778C25.1594 25.9005 25.0599 26 24.9372 26H6.56745C6.44472 26 6.34523 25.9005 6.34523 25.7778C6.34523 25.655 6.44472 25.5556 6.56745 25.5556H24.9372Z" fill="#F6F5EF" stroke="#F6F5EF" stroke-width="2" stroke-linecap="round"/>
</svg>
