<svg width="32" height="32" viewBox="0 0 32 32" fill="none" xmlns="http://www.w3.org/2000/svg">
<path d="M15.0003 7.94946L15.0003 23.4181L9.19061 26.7097L10.529 20.1513C10.6696 19.4625 10.4382 18.7506 9.9197 18.276L4.98196 13.7568L11.633 13.0031C12.3314 12.9239 12.9371 12.4839 13.2282 11.8441L15.0003 7.94946Z" fill="#F6F5EF" stroke="#F6F5EF" stroke-width="2"/>
<path d="M16.0003 5.7515L18.7725 11.8441C19.0636 12.4839 19.6692 12.9239 20.3677 13.0031L27.0187 13.7568L22.081 18.276C21.5624 18.7506 21.3311 19.4625 21.4717 20.1513L22.8101 26.7097L16.9852 23.4095C16.3736 23.063 15.6271 23.063 15.0155 23.4095L9.19061 26.7097L10.529 20.1513C10.6696 19.4625 10.4382 18.7506 9.9197 18.276L4.98196 13.7568L11.633 13.0031C12.3314 12.9239 12.9371 12.4839 13.2282 11.8441L16.0003 5.7515Z" stroke="#F6F5EF" stroke-width="2"/>
</svg>
