<svg width="32" height="32" viewBox="0 0 32 32" fill="none" xmlns="http://www.w3.org/2000/svg">
<path d="M26.3839 24.0606H6.02027M26.3839 24.0606V6C26.3839 3.79086 24.5931 2 22.3839 2H10.0203C7.81113 2 6.02027 3.79086 6.02027 6V24.0606M26.3839 24.0606V24.0606C26.3839 24.5292 25.9519 24.911 25.6413 25.2619C24.8372 26.1706 24.9479 28.5555 25.9735 29.0578C26.1839 29.1609 26.3839 29.3415 26.3839 29.5758V29.5758C26.3839 29.8101 26.194 30 25.9597 30H8.56565C5.13951 29.9989 5.15011 24.0595 8.56562 24.0606H6.02027M6.02027 24.0606L6 27.0303M9.90909 7.45455H13.303M9.90909 10H15M9.5 27.0303H14.5909" stroke="#F6F5EF" stroke-width="2" stroke-linecap="round" stroke-linejoin="round"/>
</svg>
