<svg width="32" height="32" viewBox="0 0 32 32" fill="none" xmlns="http://www.w3.org/2000/svg">
<path d="M15.5003 18.0001C12.8184 19.4798 8.37277 20.2425 5.49598 17.3657C-2.49976 9.00012 8.90653 -0.711325 16.3442 6.51765C19.3252 9.41496 18.5235 13.8365 17.0003 16.5001M15.5003 18.0001C16.8583 17.2508 16.2347 17.8388 17.0003 16.5001M15.5003 18.0001L17.0003 16.5001M15.5003 18.0001L23.7627 26.5382C24.6539 27.4592 26.1268 27.4713 27.033 26.565V26.565C28.0529 25.5452 27.8897 23.8484 26.6941 23.0416L17.0003 16.5001M10.0003 7.00012C11.0003 6.50012 12.5003 7.00012 13.0003 8.00012" stroke="#F6F5EF" stroke-width="2" stroke-linecap="round" stroke-linejoin="round"/>
</svg>
