<svg width="32" height="32" viewBox="0 0 32 32" fill="none" xmlns="http://www.w3.org/2000/svg">
<path d="M15.569 4C8.90346 4 3.5 9.37258 3.5 16C3.5 19.3212 4.85696 22.3272 7.0497 24.5C9.23257 26.6629 12.2437 28 15.569 28C18.8942 28 21.9054 26.6629 24.0882 24.5C26.281 22.3272 27.6379 19.3212 27.6379 16C27.6944 11.934 26.9149 10.3655 24.8362 8.1674M15.569 8.28571V16L21.6034 21.1429M23.2741 6.76337L22.4729 11.6688C22.4712 11.6794 22.4852 11.6849 22.4911 11.676L24.8362 8.1674M23.2741 6.76337L28.4441 6.99747C28.4553 6.99797 28.4573 7.0136 28.4467 7.01699L24.8362 8.1674M23.2741 6.76337L24.8362 8.1674" stroke="#F6F5EF" stroke-width="2" stroke-linecap="round"/>
</svg>
