<svg width="32" height="32" viewBox="0 0 32 32" fill="none" xmlns="http://www.w3.org/2000/svg">
<path d="M6.11765 25.9166C8.64978 28.4401 12.1427 30 16 30C19.8573 30 23.3502 28.4401 25.8824 25.9166M6.11765 25.9166C3.57407 23.3818 2 19.8747 2 16C2 8.26801 8.26801 2 16 2C23.732 2 30 8.26801 30 16C30 19.8747 28.4259 23.3818 25.8824 25.9166M6.11765 25.9166C8.17647 20.5465 8.58824 17.6471 16 17.6471M25.8824 25.9166C23.8235 20.5465 23.4118 17.6471 16 17.6471M16 17.6471C8.58824 17.6471 8.58824 6.94118 16 6.94118C23.4118 6.94118 23.4118 17.6471 16 17.6471Z" stroke="#F6F5EF" stroke-width="2"/>
</svg>
