<svg width="32" height="32" viewBox="0 0 32 32" fill="none" xmlns="http://www.w3.org/2000/svg">
<path d="M15 16V16.4599L15.3492 16.7593L22.3492 22.7593C22.7685 23.1187 23.3998 23.0701 23.7593 22.6508C24.1187 22.2315 24.0701 21.6002 23.6508 21.2407L17 15.5401V7C17 6.44772 16.5523 6 16 6C15.4477 6 15 6.44772 15 7V16ZM3 16C3 8.8203 8.8203 3 16 3C23.1797 3 29 8.8203 29 16C29 19.5982 27.5395 22.8534 25.1765 25.2083C22.8241 27.5526 19.582 29 16 29C12.418 29 9.17589 27.5526 6.82354 25.2083C4.46054 22.8534 3 19.5982 3 16Z" stroke="#F6F5EF" stroke-width="2" stroke-linecap="round"/>
</svg>
