<svg width="32" height="32" viewBox="0 0 32 32" fill="none" xmlns="http://www.w3.org/2000/svg">
<path d="M28 15.931C28 22.5965 22.6274 28 16 28C12.6788 28 9.67277 26.643 7.50005 24.4503C5.3371 22.2674 4 19.2563 4 15.931C4 12.6058 5.3371 9.59464 7.50005 7.41177C9.67277 5.21903 12.6788 3.86207 16 3.86207C20.066 3.80564 21.6345 4.58513 23.8326 6.66379M25.2366 8.22593L20.3312 9.02705C20.3206 9.02879 20.3151 9.01484 20.324 9.00887L23.8326 6.66379M25.2366 8.22593L25.0025 3.0559C25.002 3.04475 24.9864 3.04268 24.983 3.05331L23.8326 6.66379M25.2366 8.22593L23.8326 6.66379" stroke="#4D6D03" stroke-width="2" stroke-linecap="round"/>
</svg>
