<svg width="32" height="32" viewBox="0 0 32 32" fill="none" xmlns="http://www.w3.org/2000/svg">
<path d="M2.5 26H1.5C1.5 26.5523 1.94772 27 2.5 27V26ZM29.5 26V27C30.0523 27 30.5 26.5523 30.5 26H29.5ZM29.5 6H30.5C30.5 5.44772 30.0523 5 29.5 5V6ZM2.5 6V5C1.94772 5 1.5 5.44772 1.5 6H2.5ZM2.5 27H29.5V25H2.5V27ZM30.5 26V6H28.5V26H30.5ZM29.5 5H2.5V7H29.5V5ZM1.5 6V26H3.5V6H1.5ZM14.105 14.166L3.13167 5.22477L1.86833 6.77523L12.8416 15.7164L14.105 14.166ZM28.8683 5.22477L17.895 14.166L19.1584 15.7164L30.1317 6.77523L28.8683 5.22477ZM12.8416 15.7164C14.6806 17.2149 17.3194 17.2149 19.1584 15.7164L17.895 14.166C16.7916 15.065 15.2084 15.065 14.105 14.166L12.8416 15.7164Z" fill="#F6F5EF"/>
</svg>
