<svg width="32" height="32" viewBox="0 0 32 32" fill="none" xmlns="http://www.w3.org/2000/svg">
<path d="M16.5 18L23.5 25C23.7761 25.2761 23.7761 25.7239 23.5 26V26C23.2239 26.2761 22.7761 26.2761 22.5 26L15.5 19M16.5 18L15.5 19M16.5 18L15.0293 16.4705M15.5 19L14 17.5M14 17.5L13.6716 17.1716C12.9214 16.4214 11.904 16 10.8431 16H9.47568C9.16286 16 8.85433 15.9272 8.57454 15.7873V15.7873C8.20078 15.6004 7.89436 15.3019 7.69772 14.9332L4.47059 8.88235C4.16162 8.30303 4 7.65656 4 7V5.5V5.5C4 5.31867 4.22088 5.22971 4.34655 5.36042L15.0293 16.4705M14 17.5L15.0293 16.4705" stroke="#F6F5EF" stroke-linecap="round" stroke-linejoin="round"/>
<path d="M15.5 19L8.5 26C8.22386 26.2761 7.77614 26.2761 7.5 26V26C7.22386 25.7239 7.22386 25.2761 7.5 25L14.5 18M15.5 19L14.5 18M15.5 19L16.5 18M14.5 18L15.5 17M15.5 17L16.3284 16.1716C17.0786 15.4214 17.5 14.404 17.5 13.3431V12.1626C17.5 11.7268 17.6014 11.2971 17.7963 10.9074V10.9074C17.9312 10.6376 18.1087 10.3913 18.3221 10.1779L22.5 6C22.7761 5.72386 23.2239 5.72386 23.5 6V6C23.7761 6.27614 23.7761 6.72386 23.5 7L19.5 11C19.2239 11.2761 19.2239 11.7239 19.5 12V12C19.7761 12.2761 20.2239 12.2761 20.5 12L24.5 8C24.7761 7.72386 25.2239 7.72386 25.5 8V8C25.7761 8.27614 25.7761 8.72386 25.5 9L21.5 13C21.2239 13.2761 21.2239 13.7239 21.5 14V14C21.7761 14.2761 22.2239 14.2761 22.5 14L26.5 10C26.7761 9.72386 27.2239 9.72386 27.5 10V10C27.7761 10.2761 27.7761 10.7239 27.5 11L23.3221 15.1779C23.1087 15.3913 22.8624 15.5688 22.5926 15.7037V15.7037C22.2029 15.8986 21.7732 16 21.3374 16H20.1569C19.096 16 18.0786 16.4214 17.3284 17.1716L16.5 18M15.5 17L16.5 18" stroke="#F6F5EF" stroke-linecap="round" stroke-linejoin="round"/>
</svg>
