<svg width="32" height="32" viewBox="0 0 32 32" fill="none" xmlns="http://www.w3.org/2000/svg">
<path d="M6.72852 2L9.72852 4L12.7285 2L15.7285 4L18.7285 2L21.7285 4L24.7285 2" stroke="#F6F5EF"/>
<path d="M14.7285 14H6.72852C6.72852 14 6.72852 10 10.7285 10C14.7285 10 14.7285 14 14.7285 14Z" stroke="#F6F5EF"/>
<path d="M16.7289 13.8478L20.8652 7.00017C20.8652 7.00017 24.2891 9.06836 22.2209 12.4922C20.1527 15.916 16.7289 13.8478 16.7289 13.8478Z" stroke="#F6F5EF"/>
<path d="M15.238 16.0002L19.0745 23.0202C19.0745 23.0202 15.5645 24.9385 13.6462 21.4284C11.728 17.9184 15.238 16.0002 15.238 16.0002Z" stroke="#F6F5EF"/>
</svg>
