<svg width="32" height="32" viewBox="0 0 32 32" fill="none" xmlns="http://www.w3.org/2000/svg">
<path d="M3 16C3 8.8203 8.8203 3 16 3C23.1797 3 29 8.8203 29 16C29 19.5982 27.5395 22.8534 25.1765 25.2083C22.8241 27.5526 19.582 29 16 29C12.418 29 9.17589 27.5526 6.82354 25.2083C4.46054 22.8534 3 19.5982 3 16Z" stroke="#231311" stroke-width="2"/>
<path d="M26 16C26 18.7676 24.8757 21.2727 23.0588 23.0833C21.2502 24.8858 18.7552 26 16 26C13.2448 26 10.7498 24.8858 8.94118 23.0833C7.12434 21.2727 6 18.7676 6 16C6 10.4772 10.4772 6 16 6C21.5228 6 26 10.4772 26 16Z" fill="#822B38"/>
</svg>
