<svg width="32" height="32" viewBox="0 0 32 32" fill="none" xmlns="http://www.w3.org/2000/svg">
<path d="M8.61111 15.5V15.5C6.89289 15.5 5.5 16.8929 5.5 18.6111V23.5C5.5 25.7091 7.29086 27.5 9.5 27.5H22.5C24.7091 27.5 26.5 25.7091 26.5 23.5V18.6111C26.5 16.8929 25.1071 15.5 23.3889 15.5V15.5H8.61111ZM8.61111 15.5V8.5C8.61111 6.29086 10.402 4.5 12.6111 4.5H19.3889C21.598 4.5 23.3889 6.29086 23.3889 8.5V10.5M16.5 20.5V20.5C15.9477 20.5 15.5 20.0523 15.5 19.5V19.5C15.5 18.9477 15.9477 18.5 16.5 18.5V18.5C17.0523 18.5 17.5 18.9477 17.5 19.5V19.5C17.5 20.0523 17.0523 20.5 16.5 20.5V20.5ZM16.5 20.5V23.5" stroke="#F6F5EF" stroke-width="2" stroke-linecap="round"/>
</svg>
