<svg width="32" height="32" viewBox="0 0 32 32" fill="none" xmlns="http://www.w3.org/2000/svg">
<path d="M4 19L3.04797 18.694L3 18.8432V19H4ZM29 19H30V18.8432L29.952 18.694L29 19ZM8.5 22C7.94772 22 7.5 22.4477 7.5 23C7.5 23.5523 7.94772 24 8.5 24V22ZM24.5 24C25.0523 24 25.5 23.5523 25.5 23C25.5 22.4477 25.0523 22 24.5 22V24ZM25.3923 7.77596L24.4402 8.08197L25.3923 7.77596ZM25 27H8V29H25V27ZM5 24V19H3V24H5ZM4 20H29V18H4V20ZM28 19V24H30V19H28ZM11.4158 6H21.5842V4H11.4158V6ZM24.4402 8.08197L28.048 19.306L29.952 18.694L26.3443 7.46995L24.4402 8.08197ZM6.6557 7.46995L3.04797 18.694L4.95203 19.306L8.55975 8.08197L6.6557 7.46995ZM8.5 24H24.5V22H8.5V24ZM11.4158 4C9.24388 4 7.32034 5.40219 6.6557 7.46995L8.55975 8.08197C8.95854 6.84131 10.1127 6 11.4158 6V4ZM8 27C6.34315 27 5 25.6569 5 24H3C3 26.7614 5.23858 29 8 29V27ZM21.5842 6C22.8873 6 24.0415 6.84131 24.4402 8.08197L26.3443 7.46995C25.6797 5.40219 23.7561 4 21.5842 4V6ZM25 29C27.7614 29 30 26.7614 30 24H28C28 25.6569 26.6569 27 25 27V29Z" fill="#363636"/>
</svg>
