<svg width="32" height="32" viewBox="0 0 32 32" fill="none" xmlns="http://www.w3.org/2000/svg">
<path d="M15.382 30L16.7304 25.9546C16.9268 25.3655 17.2576 24.8302 17.6967 24.3911L22.382 19.7059M15.382 30L19.7636 29.3741C20.6591 29.2461 21.4848 28.8184 22.1059 28.1607L26.3175 23.7015M15.382 30H7.85254C5.6434 30 3.85254 28.2091 3.85254 26V6C3.85254 3.79086 5.6434 2 7.85254 2H22.0878C24.297 2 26.0878 3.79086 26.0878 6V19.5187M26.3175 23.7015V23.7015C27.3483 22.61 27.361 20.9076 26.3465 19.8009L26.0878 19.5187M26.3175 23.7015L22.382 19.7059M22.382 19.7059L22.6778 19.41C23.6328 18.4551 25.1957 18.5049 26.0878 19.5187V19.5187M8.14666 17H16.382M8.14666 12.0588H21.3231M21.3231 7.11765H8.14666" stroke="#F6F5EF" stroke-width="2" stroke-linecap="round" stroke-linejoin="round"/>
</svg>
