<svg width="32" height="32" viewBox="0 0 32 32" fill="none" xmlns="http://www.w3.org/2000/svg">
<path d="M15.5003 18C12.8184 19.4797 8.37277 20.2424 5.49598 17.3656C-2.49976 9 8.90653 -0.711447 16.3442 6.51752C19.3252 9.41484 18.5235 13.8364 17.0003 16.5M15.5003 18C16.8583 17.2507 16.2347 17.8387 17.0003 16.5M15.5003 18L17.0003 16.5M15.5003 18L23.7627 26.5381C24.6539 27.459 26.1268 27.4711 27.033 26.5649V26.5649C28.0529 25.5451 27.8897 23.8483 26.6941 23.0415L17.0003 16.5M10.0003 7C11.0003 6.5 12.5003 7 13.0003 8" stroke="#575757" stroke-width="2" stroke-linecap="round" stroke-linejoin="round"/>
</svg>
