<svg width="32" height="32" viewBox="0 0 32 32" fill="none" xmlns="http://www.w3.org/2000/svg">
<g clip-path="url(#clip0_1014_25842)">
<path d="M26.9556 14.4468C26.9204 15.3433 26.7886 16.2266 26.5601 17.0967C26.3315 17.9668 25.9844 18.7534 25.5186 19.4565C25.0615 20.1597 24.4771 20.7222 23.7651 21.144C23.0532 21.5659 22.1919 21.7769 21.1812 21.7769C20.6099 21.7769 20.0957 21.6758 19.6387 21.4736C19.1816 21.2715 18.7949 20.9858 18.4785 20.6167C18.1621 20.2388 17.9292 19.7861 17.7798 19.2588C17.6304 18.7314 17.5776 18.1382 17.6216 17.479L18.2939 9.88525H20.9307L20.2715 17.479C20.2188 17.936 20.2231 18.3096 20.2847 18.5996C20.355 18.8896 20.4604 19.1138 20.6011 19.272C20.7505 19.4302 20.9175 19.5444 21.1021 19.6147C21.2954 19.6763 21.4844 19.707 21.6689 19.707C22.0908 19.707 22.4775 19.5752 22.8291 19.3115C23.1807 19.0479 23.4839 18.6831 23.7388 18.2173C23.9937 17.7515 24.1958 17.2065 24.3452 16.5825C24.4946 15.9497 24.5781 15.2686 24.5957 14.5391C24.6572 13.3701 24.6001 12.2891 24.4243 11.2959C24.2573 10.3027 23.9673 9.41504 23.5542 8.63281C23.1499 7.8418 22.6226 7.17383 21.9722 6.62891C21.3218 6.0752 20.5483 5.65332 19.6519 5.36328C18.7554 5.06445 17.7314 4.91504 16.5801 4.91504C15.499 4.91504 14.5015 5.08203 13.5874 5.41602C12.6821 5.75 11.8691 6.229 11.1484 6.85303C10.4365 7.47705 9.82129 8.22412 9.30273 9.09424C8.79297 9.95557 8.38867 10.918 8.08984 11.9814C7.7998 13.0361 7.62842 14.1699 7.57568 15.3828C7.51416 16.6572 7.58008 17.8174 7.77344 18.8633C7.97559 19.9092 8.29639 20.8276 8.73584 21.6187C9.18408 22.4185 9.74219 23.0864 10.4102 23.6226C11.0781 24.1587 11.856 24.563 12.7437 24.8354C13.6313 25.1079 14.6201 25.2441 15.71 25.2441C16.4746 25.2441 17.2524 25.1562 18.0435 24.9805C18.8433 24.8135 19.5156 24.5981 20.0605 24.3345L20.5615 26.2988C19.9463 26.6943 19.1772 26.9888 18.2544 27.1821C17.3403 27.3755 16.4746 27.4722 15.6572 27.4722C14.2598 27.4722 12.9854 27.3008 11.834 26.958C10.6914 26.624 9.68066 26.123 8.80176 25.4551C7.92285 24.7959 7.18896 23.9785 6.6001 23.0029C6.02002 22.0273 5.58936 20.9023 5.30811 19.6279C5.03564 18.3535 4.93018 16.9385 4.9917 15.3828C5.05322 13.9414 5.27734 12.5835 5.66406 11.3091C6.05078 10.0347 6.57812 8.87891 7.24609 7.8418C7.91406 6.80469 8.71387 5.9126 9.64551 5.16553C10.5859 4.40967 11.6406 3.82959 12.8096 3.42529C13.9785 3.021 15.2529 2.81885 16.6328 2.81885C18.0039 2.81885 19.2476 2.99902 20.3638 3.35938C21.4888 3.71973 22.4731 4.23828 23.3169 4.91504C24.1606 5.58301 24.8638 6.396 25.4263 7.354C25.9888 8.30322 26.3975 9.37549 26.6523 10.5708C26.9072 11.7661 27.0083 13.0581 26.9556 14.4468ZM13.6401 15.8311C13.5962 16.4111 13.6006 16.9253 13.6533 17.3735C13.7061 17.8218 13.8071 18.1997 13.9565 18.5073C14.106 18.8149 14.2993 19.0479 14.5366 19.2061C14.7827 19.3555 15.0728 19.4302 15.4067 19.4302C15.5913 19.4302 15.7935 19.3862 16.0132 19.2983C16.2329 19.2017 16.457 19.0435 16.6855 18.8237C16.9141 18.604 17.1294 18.3008 17.3315 17.9141C17.5425 17.5186 17.7183 17.022 17.8589 16.4243L18.9795 17.7559C18.7773 18.415 18.5269 18.9951 18.228 19.4961C17.9292 19.9883 17.5864 20.4014 17.1997 20.7354C16.8218 21.0693 16.4087 21.3198 15.9604 21.4868C15.5122 21.6538 15.0288 21.7373 14.5103 21.7373C13.8687 21.7373 13.2974 21.6011 12.7964 21.3286C12.2954 21.0474 11.8779 20.6475 11.5439 20.1289C11.21 19.6104 10.9683 18.9907 10.8188 18.27C10.6782 17.5405 10.6519 16.7275 10.7397 15.8311C10.8364 14.9346 11.0122 14.104 11.2671 13.3394C11.522 12.5747 11.8384 11.8936 12.2163 11.2959C12.5942 10.6895 13.0249 10.1753 13.5083 9.75342C14.0005 9.32275 14.5322 8.99756 15.1035 8.77783C15.6748 8.55811 16.2725 8.44824 16.8965 8.44824C17.9072 8.44824 18.7026 8.59326 19.2827 8.8833C19.8628 9.17334 20.4121 9.50732 20.9307 9.88525L19.5859 11.6914C19.3311 11.4629 18.9971 11.2432 18.584 11.0322C18.1797 10.8125 17.6963 10.7026 17.1338 10.7026C16.6152 10.7026 16.1582 10.8125 15.7627 11.0322C15.376 11.252 15.0376 11.5815 14.7476 12.021C14.4663 12.4517 14.2334 12.9878 14.0488 13.6294C13.8643 14.2622 13.728 14.9961 13.6401 15.8311Z" fill="#F6F5EF"/>
</g>
<defs>
<clipPath id="clip0_1014_25842">
<rect width="32" height="32" fill="white"/>
</clipPath>
</defs>
</svg>
