<svg width="32" height="32" viewBox="0 0 32 32" fill="none" xmlns="http://www.w3.org/2000/svg">
<path d="M8.25883 16C7.92686 14.8279 7.90083 14.1775 8.25883 13C8.39283 11.9783 8.57035 11.5413 9.25883 11.5C9.91828 10.238 10.5536 9.75935 11.7588 9.5C11.8128 9.58089 14.2955 9.08798 14.7588 9.5C15.2221 9.91202 15.8333 11.3099 16.7587 11H20.2587C21.2587 11 21.2587 11 21.7587 10.5C22.2587 10 20.2587 9.5 20.2587 8.5C20.2587 7.5 22.7588 8 22.7588 8C22.7588 7 22.5075 7.27161 21.7588 6H19.7588C19.7588 6 18.7588 8 18.2588 8C17.7589 8 16.7588 6.5 16.7588 6.5C16.7588 6.5 16.2589 6 15.7588 6.5C15.2588 7 16.7589 7.5 16.7588 8C16.7588 8.5 15.98 8.84364 15.7588 8.5C15.5376 8.15636 15.0694 6.61414 14.7588 7C14.7588 7 13.7588 6.5 13.2588 7C12.7589 7.5 12.7588 8 11.7588 8.5C10.7589 9 10.2588 9 9.75883 8.5C9.25883 8 9.25887 7.5 9.75883 7C10.2588 6.5 11.2588 7 11.7588 6.5C12.2588 6 10.2589 5.5 10.7588 5C11.2588 4.5 11.7589 4.5 12.2588 4.5C12.7588 4.5 13.2588 4 13.2588 3.5C13.2589 3 13.2589 3 13.7588 3H15H17L19 3.5H20.5L25.2587 6.66827L28.2588 11.5C28.2588 11.5 25.2586 11.5 25.2587 12C25.2588 12.5 26.7587 13.5 24.7587 14.5C22.7587 15.5 22.2587 11.5 21.7588 12C21.2589 12.5 21.2589 12.5 21.7588 13C22.2587 13.5 21.7588 14.5 22.2587 15C22.7586 15.5 22.7589 17 23.2588 17C23.7587 17 24.7589 16 25.2588 16C25.7587 16 25.7589 16.5 25.2588 18C24.7587 19.5 22.7589 19.5 22.2588 20.5C21.7587 21.5 23.2587 22 22.2588 23C21.2589 24 17.7587 26 16.7588 26C15.7589 26 15.2587 24.5 15.7588 22C16.2589 19.5 14.7587 19 14.2588 18.5C13.7589 18 11.2587 19 10.2588 18.5C9.25894 18 8.79062 17.3498 8.25883 16Z" fill="#F6F5EF"/>
<path d="M25.2587 6.66827L28.2588 11.5C28.2588 11.5 25.2586 11.5 25.2587 12C25.2588 12.5 26.7587 13.5 24.7587 14.5C22.7587 15.5 22.2587 11.5 21.7588 12C21.2589 12.5 21.2589 12.5 21.7588 13C22.2587 13.5 21.7588 14.5 22.2587 15C22.7586 15.5 22.7589 17 23.2588 17C23.7587 17 24.7589 16 25.2588 16C25.7587 16 25.7589 16.5 25.2588 18C24.7587 19.5 22.7589 19.5 22.2588 20.5C21.7587 21.5 23.2587 22 22.2588 23C21.2589 24 17.7587 26 16.7588 26C15.7589 26 15.2587 24.5 15.7588 22C16.2589 19.5 14.7587 19 14.2588 18.5C13.7589 18 11.2587 19 10.2588 18.5C9.25894 18 8.79062 17.3498 8.25883 16C7.92686 14.8278 7.90083 14.1775 8.25883 13C8.39283 11.9783 8.57035 11.5413 9.25883 11.5C9.91828 10.238 10.5536 9.75935 11.7588 9.5C11.8128 9.58089 14.2955 9.08798 14.7588 9.5C15.2221 9.91202 15.8333 11.3099 16.7587 11C16.7587 11 19.2587 11 20.2587 11C21.2587 11 21.2587 11 21.7587 10.5C22.2587 10 20.2587 9.5 20.2587 8.5C20.2587 7.5 22.7588 8 22.7588 8M25.2587 6.66827L22.7588 8M25.2587 6.66827L20.5 3.5M22.7588 8C22.7588 7 22.5075 7.27161 21.7588 6M21.7588 6H19.7588C19.7588 6 18.7588 8 18.2588 8C17.7589 8 16.7588 6.5 16.7588 6.5C16.7588 6.5 16.2589 6 15.7588 6.5C15.2588 7 16.7589 7.5 16.7588 8C16.7588 8.5 15.98 8.84364 15.7588 8.5C15.5376 8.15636 15.0694 6.61414 14.7588 7C14.7588 7 13.7588 6.5 13.2588 7C12.7589 7.5 12.7588 8 11.7588 8.5C10.7589 9 10.2588 9 9.75883 8.5C9.25883 8 9.25887 7.5 9.75883 7C10.2588 6.5 11.2588 7 11.7588 6.5C12.2588 6 10.2589 5.5 10.7588 5C11.2588 4.5 11.7589 4.5 12.2588 4.5C12.7588 4.5 13.2588 4 13.2588 3.5C13.2589 3 13.2589 3 13.7588 3C14.2588 3 15 3 15 3L17 3L19 3.5H20.5M21.7588 6L20.5 3.5" stroke="#F6F5EF" stroke-width="0.5"/>
<path d="M30 16C30 19.8747 28.4259 23.3818 25.8824 25.9166C23.3502 28.4401 19.8573 30 16 30C12.1427 30 8.64978 28.4401 6.11765 25.9166C3.57407 23.3818 2 19.8747 2 16C2 8.26801 8.26801 2 16 2C23.732 2 30 8.26801 30 16Z" stroke="#F6F5EF" stroke-width="2"/>
</svg>
