<svg width="32" height="32" viewBox="0 0 32 32" fill="none" xmlns="http://www.w3.org/2000/svg">
<path d="M9.5 26.5V15.5M16 26.5V15.5M22.5 26.5V15.5M13.5 4.5H6.5C5.39543 4.5 4.5 5.39543 4.5 6.5V6.5C4.5 7.60457 5.39543 8.5 6.5 8.5H25.5C26.6046 8.5 27.5 7.60457 27.5 6.5V6.5C27.5 5.39543 26.6046 4.5 25.5 4.5H18.5M13.5 4.5H18.5M13.5 4.5V4C13.5 2.61929 14.6193 1.5 16 1.5V1.5C17.3807 1.5 18.5 2.61929 18.5 4V4.5M23.5 12H8.5C6.29086 12 4.5 13.7909 4.5 16V26.5C4.5 28.7091 6.29086 30.5 8.5 30.5H23.5C25.7091 30.5 27.5 28.7091 27.5 26.5V16C27.5 13.7909 25.7091 12 23.5 12Z" stroke="#F6F5EF" stroke-width="2" stroke-linecap="round"/>
</svg>
