<svg width="32" height="32" viewBox="0 0 32 32" fill="none" xmlns="http://www.w3.org/2000/svg">
<path d="M15.0003 6.61255L15.0003 22.0812L9.19061 25.3728L10.529 18.8144C10.6696 18.1256 10.4382 17.4137 9.9197 16.9391L4.98196 12.4199L11.633 11.6662C12.3314 11.587 12.9371 11.147 13.2282 10.5072L15.0003 6.61255Z" fill="#F6F5EF" stroke="#F6F5EF" stroke-width="2"/>
<path d="M16.0003 4.41459L18.7725 10.5072C19.0636 11.147 19.6692 11.587 20.3677 11.6662L27.0187 12.4199L22.081 16.9391C21.5624 17.4137 21.3311 18.1256 21.4717 18.8144L22.8101 25.3728L16.9852 22.0726C16.3736 21.7261 15.6271 21.7261 15.0155 22.0726L9.19061 25.3728L10.529 18.8144C10.6696 18.1256 10.4382 17.4137 9.9197 16.9391L4.98196 12.4199L11.633 11.6662C12.3314 11.587 12.9371 11.147 13.2282 10.5072L16.0003 4.41459Z" stroke="#F6F5EF" stroke-width="2"/>
</svg>
