<svg width="32" height="32" viewBox="0 0 32 32" fill="none" xmlns="http://www.w3.org/2000/svg">
<path d="M16.069 4C9.40346 4 4 9.37258 4 16C4 19.3212 5.35696 22.3272 7.5497 24.5C9.73257 26.6629 12.7437 28 16.069 28C19.3942 28 22.4054 26.6629 24.5882 24.5C26.781 22.3272 28.1379 19.3212 28.1379 16C28.1944 11.934 27.4149 10.3655 25.3362 8.1674M16.069 8.28571V16L22.1034 21.1429M23.7741 6.76337L22.9729 11.6688C22.9712 11.6794 22.9852 11.6849 22.9911 11.676L25.3362 8.1674M23.7741 6.76337L28.9441 6.99747C28.9553 6.99797 28.9573 7.0136 28.9467 7.01699L25.3362 8.1674M23.7741 6.76337L25.3362 8.1674" stroke="#4D6D03" stroke-width="2" stroke-linecap="round"/>
</svg>
