<svg width="32" height="32" viewBox="0 0 32 32" fill="none" xmlns="http://www.w3.org/2000/svg">
<path d="M25.4997 26V26C25.5069 28.2071 23.7197 30 21.5126 30H11.4997C9.29061 30 7.49975 28.2091 7.49975 26V26M25.4997 26C23.9998 25 8.99976 25 7.49975 26M25.4997 26L25.509 19.097C25.5112 17.4635 26.6506 16.0753 27.639 14.7748C29.7863 11.9493 28.9108 7.05502 25.0123 6.03483C23.4553 5.62739 21.8998 4.95647 20.7437 3.83685C18.2147 1.38778 15.0163 1.38755 12.4879 3.83617C11.3316 4.95602 9.78283 5.64663 8.21707 6.02022C4.03817 7.01731 2.58108 12.0344 5.09498 14.8591C6.23963 16.1453 7.49975 17.5544 7.49975 19.2761L7.49975 26M11.9998 16V22M20.9997 22V16M16.4998 22V13" stroke="#F6F5EF" stroke-width="2" stroke-linecap="round" stroke-linejoin="round"/>
</svg>
