<svg width="32" height="32" viewBox="0 0 32 32" fill="none" xmlns="http://www.w3.org/2000/svg">
<path d="M25.1794 26.0001V26.0001C25.1865 28.2072 23.3994 30.0002 21.1923 30.0002H11.1794C8.9703 30.0002 7.17944 28.2093 7.17944 26.0001V26.0001M25.1794 26.0001C23.6794 25.0001 8.67944 25.0001 7.17944 26.0001M25.1794 26.0001L25.1887 19.0971C25.1909 17.4636 26.3303 16.0755 27.3187 14.7749C29.466 11.9494 28.5905 7.05514 24.692 6.03495C23.135 5.62751 21.5795 4.95659 20.4234 3.83697C17.8944 1.3879 14.696 1.38768 12.1676 3.83629C11.0113 4.95615 9.46252 5.64675 7.89676 6.02034C3.71786 7.01743 2.26076 12.0345 4.77467 14.8593C5.91932 16.1454 7.17944 17.5545 7.17944 19.2763L7.17944 26.0001M11.6794 16.0001V22.0001M20.6794 22.0001V16.0001M16.1794 22.0001V13.0001" stroke="#F6F5EF" stroke-width="2" stroke-linecap="round" stroke-linejoin="round"/>
</svg>
