<svg width="32" height="32" viewBox="0 0 32 32" fill="none" xmlns="http://www.w3.org/2000/svg">
<path d="M28 16.431C28 23.0965 22.6274 28.5 16 28.5C12.6788 28.5 9.67277 27.143 7.50005 24.9503C5.3371 22.7674 4 19.7563 4 16.431C4 13.1058 5.3371 10.0946 7.50005 7.91177C9.67277 5.71903 12.6788 4.36207 16 4.36207C20.066 4.30564 21.6345 5.08513 23.8326 7.16379M25.2366 8.72593L20.3312 9.52705C20.3206 9.52879 20.3151 9.51484 20.324 9.50887L23.8326 7.16379M25.2366 8.72593L25.0025 3.5559C25.002 3.54475 24.9864 3.54268 24.983 3.55331L23.8326 7.16379M25.2366 8.72593L23.8326 7.16379" stroke="#F6F5EF" stroke-width="2" stroke-linecap="round"/>
</svg>
