<svg width="32" height="32" viewBox="0 0 32 32" fill="none" xmlns="http://www.w3.org/2000/svg">
<path d="M12.9199 16.8589C8.79277 14.3856 9.81949 6.94118 16 6.94118C22.1805 6.94118 23.2072 14.3856 19.0801 16.8589M16 29C12.6484 29 9.59444 27.7328 7.28843 25.6494C7.37851 25.4096 7.46478 25.1778 7.54839 24.9531C7.85105 24.1397 8.11883 23.42 8.40596 22.7558C8.83145 21.7715 9.25426 21.0236 9.78679 20.4458C10.7942 19.3528 12.4049 18.6471 16 18.6471C19.5951 18.6471 21.2058 19.3528 22.2132 20.4458C22.7457 21.0236 23.1685 21.7715 23.594 22.7558C23.8812 23.42 24.1489 24.1397 24.4516 24.9531C24.5352 25.1778 24.6215 25.4096 24.7116 25.6494C22.4056 27.7328 19.3516 29 16 29ZM11.6068 17.1434C10.2157 17.5374 9.15939 18.1754 8.31615 19.0903C7.56192 19.9087 7.03252 20.8926 6.57014 21.9622C6.29998 22.5872 6.03697 23.2815 5.76353 24.0144C4.0316 21.8058 3 19.024 3 16C3 8.8203 8.8203 3 16 3C23.1797 3 29 8.8203 29 16C29 19.024 27.9684 21.8058 26.2365 24.0144C25.963 23.2815 25.7 22.5872 25.4299 21.9622C24.9675 20.8926 24.4381 19.9087 23.6838 19.0903C22.8406 18.1754 21.7843 17.5374 20.3932 17.1434C20.5739 16.9894 20.7443 16.8255 20.9039 16.6525C22.0189 15.4446 22.5588 13.8559 22.5588 12.2941C22.5588 10.7324 22.0189 9.1436 20.9039 7.93569C19.7746 6.71224 18.1114 5.94118 16 5.94118C13.8886 5.94118 12.2254 6.71224 11.0961 7.93569C9.98109 9.1436 9.44118 10.7324 9.44118 12.2941C9.44118 13.8559 9.98109 15.4446 11.0961 16.6525C11.2557 16.8255 11.4261 16.9894 11.6068 17.1434ZM16 16.6471C14.4055 16.6471 13.2893 16.0799 12.5657 15.296C11.8277 14.4965 11.4412 13.4088 11.4412 12.2941C11.4412 11.1794 11.8277 10.0917 12.5657 9.29225C13.2893 8.50835 14.4055 7.94118 16 7.94118C17.5945 7.94118 18.7107 8.50835 19.4343 9.29225C20.1723 10.0917 20.5588 11.1794 20.5588 12.2941C20.5588 13.4088 20.1723 14.4965 19.4343 15.296C18.7107 16.0799 17.5945 16.6471 16 16.6471Z" stroke="#F6F5EF" stroke-width="2"/>
</svg>
