<svg width="32" height="32" viewBox="0 0 32 32" fill="none" xmlns="http://www.w3.org/2000/svg">
<path d="M8 23H21C23.2091 23 25 21.2092 25 19V9.85718C25 7.64804 23.2091 5.85718 21 5.85718H8C5.79086 5.85718 4 7.64804 4 9.85718V19C4 21.2092 5.79086 23 8 23Z" stroke="#8C8C8C"/>
<path d="M11 14.2857C11 12.4519 12.4516 11 14.2 11C15.9484 11 17.4 12.4519 17.4 14.2857C17.4 15.2019 17.0362 16.0258 16.4517 16.6203C15.8701 17.2116 15.0753 17.5714 14.2 17.5714C13.3247 17.5714 12.5299 17.2116 11.9483 16.6203C11.3638 16.0258 11 15.2019 11 14.2857Z" stroke="#8C8C8C" stroke-width="2"/>
<path d="M6.51953 5H9.87953" stroke="#8C8C8C" stroke-width="2" stroke-linecap="round"/>
<path d="M18 9H21.36" stroke="#8C8C8C" stroke-width="2" stroke-linecap="round"/>
<path d="M20.6569 25.3137L20.6569 19.6569M20.6569 14L20.6569 19.6569M20.6569 19.6569L15 19.6569M20.6569 19.6569L26.3137 19.6569" stroke="#8C8C8C" stroke-width="2" stroke-linecap="round"/>
</svg>
